<svg xmlns="http://www.w3.org/2000/svg" xmlns:xlink="http://www.w3.org/1999/xlink" width="500" zoomAndPan="magnify" viewBox="0 0 375 374.999991" height="500" preserveAspectRatio="xMidYMid meet" version="1.0"><defs><clipPath id="344ad35084"><path d="M 39.113281 88.6875 L 335.886719 88.6875 L 335.886719 286.238281 L 39.113281 286.238281 Z M 39.113281 88.6875 " clip-rule="nonzero"/></clipPath></defs><rect x="-37.5" width="450" fill="#ffffff" y="-37.499999" height="449.999989" fill-opacity="1"/><rect x="-37.5" width="450" fill="#2f2f2f" y="-37.499999" height="449.999989" fill-opacity="1"/><g clip-path="url(#344ad35084)"><path fill="#f3f3f3" d="M 232.371094 178.769531 C 210.605469 178.769531 192.820312 160.957031 192.820312 139.195312 C 192.820312 117.457031 210.605469 99.648438 232.371094 99.648438 C 254.132812 99.648438 271.941406 117.457031 271.941406 139.195312 C 271.941406 161.300781 254.449219 178.769531 232.371094 178.769531 Z M 87.988281 206.460938 C 66.222656 206.460938 48.414062 188.648438 48.414062 166.914062 C 48.414062 145.148438 66.222656 127.339844 87.988281 127.339844 C 109.722656 127.339844 127.535156 145.148438 127.535156 166.914062 C 127.535156 188.648438 109.722656 206.460938 87.988281 206.460938 Z M 335.570312 209.753906 C 333.910156 196.554688 324.03125 185.699219 311.171875 182.378906 C 305.5625 180.746094 300.292969 181.0625 295.339844 182.0625 C 292.703125 182.71875 290.070312 181.746094 288.4375 180.085938 L 277.871094 167.886719 C 276.238281 165.910156 275.894531 163.277344 276.894531 160.957031 C 280.847656 153.371094 282.824219 144.808594 282.480469 135.242188 C 280.847656 110.1875 260.058594 89.769531 235.003906 88.765625 C 206.65625 87.449219 183.257812 110.1875 183.257812 138.21875 C 183.257812 151.394531 188.527344 163.59375 197.089844 172.496094 C 199.410156 174.816406 200.066406 178.425781 198.40625 181.402344 L 177.644531 216.023438 C 175.984375 218.972656 173.035156 220.632812 169.742188 220.632812 C 167.765625 220.632812 165.789062 220.976562 164.128906 221.292969 C 158.859375 222.269531 153.25 220.292969 149.640625 216.683594 L 141.390625 207.460938 C 134.464844 200.1875 132.488281 191.308594 135.4375 183.378906 C 138.097656 176.449219 139.417969 168.863281 138.414062 160.640625 C 136.121094 136.902344 116.335938 118.117188 92.253906 116.457031 C 61.269531 114.480469 35.554688 140.855469 39.507812 171.839844 C 42.140625 193.257812 58.976562 211.070312 80.398438 214.363281 C 86.984375 215.363281 93.574219 215.363281 99.84375 213.703125 C 107.746094 212.070312 115.992188 214.046875 121.261719 219.976562 L 133.144531 232.832031 C 136.753906 236.46875 137.757812 241.738281 136.753906 246.691406 C 136.121094 249.300781 136.121094 251.960938 136.121094 254.910156 C 136.753906 272.0625 151.589844 286.238281 168.742188 286.238281 C 187.210938 286.582031 202.386719 271.722656 202.386719 253.277344 C 202.386719 247.007812 200.726562 241.078125 197.433594 236.125 C 195.773438 233.492188 195.457031 230.199219 197.089844 227.5625 L 219.195312 190.96875 C 220.828125 188.332031 223.492188 187.015625 226.785156 187.332031 C 228.734375 187.675781 230.710938 187.675781 233.027344 187.675781 C 240.617188 187.675781 247.863281 186.015625 254.449219 182.71875 C 257.109375 181.402344 260.058594 182.0625 262.035156 184.039062 L 271.257812 194.261719 C 272.917969 196.238281 273.578125 199.1875 272.574219 201.507812 C 270.625 206.777344 269.625 212.703125 270.625 218.972656 C 272.917969 233.492188 285.117188 245.03125 299.949219 246.691406 C 320.738281 248.984375 338.523438 231.171875 335.570312 209.753906 " fill-opacity="1" fill-rule="nonzero"/></g></svg>