<svg id="Layer_1" data-name="Layer 1" xmlns="http://www.w3.org/2000/svg" viewBox="0 0 308.33 309.51"><defs><style>.cls-1,.cls-4{fill:#fec771;}.cls-1,.cls-2,.cls-3,.cls-4,.cls-5,.cls-6{stroke:#fff;stroke-miterlimit:10;}.cls-1,.cls-2,.cls-3,.cls-5,.cls-6{stroke-width:3px;}.cls-2{fill:#a490c4;}.cls-3{fill:#e78e63;}.cls-4{stroke-width:5px;}.cls-5{fill:#5ab59a;}.cls-6{fill:#ec695a;}.cls-7{font-size:60px;font-family:BerlinSansFB-Reg, Berlin Sans FB;}.cls-7,.cls-8{fill:#fff;}.cls-8{font-size:48px;font-family:BritannicBold, Britannic Bold;}.cls-9{fill:#eebc6b;}.cls-10{fill:#eab969;}.cls-11{fill:#f3bf6d;}.cls-12{fill:#dd885f;}.cls-13{fill:#9886b7;}.cls-14{fill:#de6255;}.cls-15{fill:#54aa92;}.cls-16{fill:#ededee;}.cls-17{fill:#f0bd6c;}</style></defs><ellipse class="cls-1" cx="154.17" cy="154.75" rx="152.67" ry="153.25"/><path class="cls-1" d="M297.3,159.24c-2.47,79.35-68.56,141.67-147.61,139.19A143.52,143.52,0,0,1,11,150.26C13.5,70.91,79.59,8.59,158.64,11.07S299.77,79.89,297.3,159.24Z"/><path class="cls-2" d="M279.21,135.18a9.75,9.75,0,0,1,9.88,9.6v24.43a9.2,9.2,0,0,1-9.33,9.07H211.11c-11.92,0-21.58-9.39-21.58-21h0c0-12.22,10.18-22.13,22.76-22.13Z"/><path class="cls-3" d="M194.08,203.34H220a4.33,4.33,0,0,1,4.33,4.33v78a1.7,1.7,0,0,1-1.7,1.7H191.09a1.7,1.7,0,0,1-1.7-1.7V208a4.69,4.69,0,0,1,4.69-4.69Z" transform="translate(-38.44 452.23) rotate(-90.01)"/><path class="cls-4" d="M205.52,62.84H191.38c-21.1,0-38.2,18.36-38.19,41v6.83c0,25.58-19.31,46.32-43.14,46.32H68.31"/><path class="cls-4" d="M167.54,245.32H156.79c-16,0-29-17.27-29-38.58v-6.43c0-24.07-14.68-43.58-32.78-43.58H63.3"/><line class="cls-4" x1="188.2" y1="157" x2="90.93" y2="156.74"/><path class="cls-5" d="M84.78,145.25a10.22,10.22,0,0,0-10.08-10.1l-62.07,0c-1.94,7.2-2.07,14.74-2.07,21.83a114.91,114.91,0,0,0,2.21,20.29c20.69,0,40.9.3,61.6.3a10.25,10.25,0,0,0,10.42-10.07Z"/><path class="cls-6" d="M271.2,71.89c.83,1.17.61.91,1.72,2.5.1.14.83,1.19,1.7,2.58.7,1.14,1.27,2.15.93,2.62a1.44,1.44,0,0,1-.34.31,2.21,2.21,0,0,1-.89.34,4.88,4.88,0,0,1-1,.1h-2.11l-.68,0H201a4.28,4.28,0,0,1-3-1.23,4.19,4.19,0,0,1-1.23-3V49.84a4.48,4.48,0,0,1,4.47-4.48c13.92,0,37.54,0,38.27,0h1.83l2.22,0H246l.37,0,.27,0a3.25,3.25,0,0,1,.37.11,15.34,15.34,0,0,1,2.54,1.92L251,48.86l.31.31c.39.36.6.54,1.45,1.35.18.17.76.72,1.45,1.4s1.84,1.81,3.42,3.47,2.66,2.88,3.71,4.08,2,2.22,3.09,3.58,1.86,2.34,3.21,4.11C269.23,69.2,270.08,70.3,271.2,71.89Z"/><ellipse class="cls-1" cx="194.25" cy="62.85" rx="6.41" ry="6.8"/><circle class="cls-1" cx="188.2" cy="157" r="8"/><ellipse class="cls-1" cx="163.81" cy="245.34" rx="6.88" ry="7.29"/><text class="cls-7" transform="translate(69.13 114.18) rotate(-56.67)">E</text><text class="cls-7" transform="matrix(0.74, -0.67, 0.67, 0.74, 85.7, 89.36)">c</text><text class="cls-7" transform="translate(101.38 74.12) rotate(-28.53)">o</text><text class="cls-8" transform="matrix(0.67, 0.85, -0.78, 0.62, 39, 218.05)">F</text><text class="cls-8" transform="translate(58.09 241.19) rotate(44.17) scale(1.09 1)">l</text><text class="cls-8" transform="translate(71.3 254.29) rotate(36.07) scale(1.09 1)">o</text><text class="cls-8" transform="translate(99.53 274.44) rotate(23.84) scale(1.09 1)">w</text><path class="cls-9" d="M74.47,179.27c-8.9,2.29-18.31,4.46-28.21,6.43-10.18,2-20,3.66-29.3,5l-1.37-6.1-1-5.65Z"/><path class="cls-10" d="M36.68,89.19l31.65,25.64,2.06-3.37c-4.83-3.64-10-7.34-15.58-11C48.57,96.27,42.5,92.54,36.68,89.19Z"/><path class="cls-10" d="M74.39,74.52l.33.58a17.78,17.78,0,0,0,4.12,4.7,14.73,14.73,0,0,0,2.84,1.86,15.15,15.15,0,0,0,12,.22,15,15,0,0,0,7.75-7.95,13.61,13.61,0,0,1-6.22,9.35c-5.8,3.47-11.77.85-12.29.61a15.58,15.58,0,0,1-8.57-9.37Z"/><path class="cls-10" d="M97.26,63.59a16.39,16.39,0,0,0,8.74,5,13.73,13.73,0,0,0,6.41-.12,14,14,0,0,0,7.44-5.11,12.45,12.45,0,0,1-6.57,5.93,11.93,11.93,0,0,1-5.62.64,13.27,13.27,0,0,1-7.86-3.18A12.47,12.47,0,0,1,97.26,63.59Z"/><polygon class="cls-10" points="69.7 210.49 77.53 220.4 69.7 213.31 63.3 217.14 67.97 225.5 61.33 217.09 69.7 210.49"/><polygon class="cls-10" points="58.81 219.08 65.45 227.49 58.81 221.12 47.67 229.36 47.11 228.32 58.81 219.08"/><path class="cls-10" d="M89.18,226.14l1.38,2.77q-5.53,5-11.11,10.21-6,5.55-11.75,11l-1.14-.75Z"/><path class="cls-10" d="M102.68,250c.12,2,.16,7.25-3.35,11.56a11.69,11.69,0,0,1-3.67,3.12,12.54,12.54,0,0,1-8.81.9,11.13,11.13,0,0,0,13.44-2.65,12.92,12.92,0,0,0,3.13-7A12.73,12.73,0,0,0,102.68,250Z"/><polygon class="cls-10" points="141.16 267.01 142.51 269.89 125.09 285.78 123.89 285.2 141.16 267.01"/><polygon class="cls-10" points="119.47 274.42 112.9 280.49 112.11 280 120.12 270.45 119.47 274.42"/><path class="cls-10" d="M117.43,256.52l2.36,2.84-1.91,9.32-1.9,2.37Z"/><path class="cls-10" d="M130.45,262.28l1.28,1.86c-1.42,5.91-3,12.33-3.2,12.28a12.49,12.49,0,0,1,.28-2.28C129.25,271.33,129.84,267.35,130.45,262.28Z"/><path class="cls-11" d="M86.85,159.44a28.48,28.48,0,0,1,23.2,5.28,41.59,41.59,0,0,1,6.8,7.57c1,1.42,5.41,7.94,7.46,19.47,1.93,10.84-.46,13.56,1.71,24.45a65.49,65.49,0,0,0,3.77,12.34c-6.59-9.18-8.21-16.66-8.43-21.87-.14-3.37.33-5.19-.17-10a43.61,43.61,0,0,0-4.34-16.34,38.81,38.81,0,0,0-30-20.9Z"/><path class="cls-10" d="M169.41,264.38c0,.11,5,.26,8.88.4,5.56.21,21.46.79,38.39,2.81,8.16,1,15.06,2.05,20.24,2.94l7.21-5.81c-35.12-.34-53.3-.43-63.25-.46C176.89,264.25,169.41,264.24,169.41,264.38Z"/><path class="cls-12" d="M170.3,229.4l76.75-.05a.31.31,0,0,1,.22.07.36.36,0,0,1,.08.18l0,22.29-2.46-19.95Z"/><path class="cls-13" d="M211.45,137.06h69.19a7,7,0,0,1,3.7,1.15,7.39,7.39,0,0,1,3.07,5v27.06q-1.31-7.84-2.6-15.7a15.34,15.34,0,0,1-.44-1.6c-.2-.86-.23-1.34-.37-2.32s-.27-1.71-.51-2.93a16.42,16.42,0,0,0-.64-2.81,5.37,5.37,0,0,0-2.8-2.51l-4.22-.35Q243.55,139.38,211.45,137.06Z"/><path class="cls-14" d="M215.79,46.87l30.45.06a81.93,81.93,0,0,1,7.34,6.26,80.3,80.3,0,0,1,7.27,8l-13-8.37a7.16,7.16,0,0,0-4-1.72Z"/><path class="cls-15" d="M30.9,137.06,70.55,141l5.57.54c.21,1.3.41,2.62.58,4A98.72,98.72,0,0,1,76.77,169a8.85,8.85,0,0,1-1,3.45,9,9,0,0,1-3.45,3.51c.25,0,5.83.94,9-3a8.6,8.6,0,0,0,1.79-4.68V143.34a9.54,9.54,0,0,0-3.18-4.88,9.11,9.11,0,0,0-4.34-1.72C71.38,136.12,54.19,136.2,30.9,137.06Z"/><path class="cls-11" d="M111.75,159.59l6,5.24,64.47-.39a11.27,11.27,0,0,1-1.86-2.1,11.5,11.5,0,0,1-1.34-2.75Z"/><path class="cls-11" d="M153.7,125.74a51.44,51.44,0,0,1-16.25,28.51H130.9a51.75,51.75,0,0,0,22.8-28.51Z"/><polygon class="cls-11" points="250.64 229.35 255.62 254 250.64 259.66 250.64 229.35"/><path class="cls-11" d="M209.79,179.87l82.72,5.76a149.38,149.38,0,0,0,3.15-25.51,151.07,151.07,0,0,0-.59-20.12,38.72,38.72,0,0,0-3.92-2.5,37.56,37.56,0,0,0-8-3.25,10.81,10.81,0,0,1,5.13,3.66c2.2,3,2.38,7,2.47,10.89.06,2.87.07,4.78.08,8.6,0,1.27,0,4.63-.17,8.94s-.35,5-.59,5.78a13.07,13.07,0,0,1-4.6,6.21Z"/><path class="cls-11" d="M201.53,82l79.58,9.87q-1.11-2.52-2.21-5-1.63-2.59-3.25-5.19Z"/><path class="cls-16" d="M50,68.39,36.83,88.49l-.15.7,2.53,1.46L52,67.78a1.09,1.09,0,0,0-.94-.3,1,1,0,0,0-.46.3Z"/><path class="cls-16" d="M84.48,53.78A14.34,14.34,0,0,0,80.84,55a15.35,15.35,0,0,0-4.43,3.32,16.29,16.29,0,0,0-2.16,2.92c-.24.5-.43.94-.58,1.29a11.22,11.22,0,0,0-.46,1.29l0,.14-.44,2.67a20.83,20.83,0,0,1,12.54-12.4.66.66,0,0,0-.35-.38A.63.63,0,0,0,84.48,53.78Z"/><path class="cls-16" d="M96,45.83a16.83,16.83,0,0,1,24.09.89,14.56,14.56,0,0,0-10.73-7.11A14.27,14.27,0,0,0,96,45.83Z"/><path class="cls-16" d="M52.7,211l13.19-6.61,11.64,10.87L66,200.57Z"/><polyline class="cls-16" points="85.16 222.72 82.17 219.99 59.88 242.93 84.46 222.18"/><path class="cls-16" d="M93.94,241.1A15.35,15.35,0,0,0,83.28,244c-6.37,4.88-5.8,13-5.75,13.59a10.22,10.22,0,0,1-1.21-3.83c-.54-5.21,3.32-9,4-9.63a12.86,12.86,0,0,1,4.15-3.32,9.79,9.79,0,0,1,3.88-1.21A9.57,9.57,0,0,1,93.94,241.1Z"/><polygon class="cls-16" points="108.54 252.85 111.43 253.87 107.92 278 106.72 277.62 108.54 252.85"/><path class="cls-16" d="M186.56,60.17a48.91,48.91,0,0,0-16.47,6.29,33.28,33.28,0,0,0-5.36,4,32.79,32.79,0,0,0-5.37,6.26c-.94,1.49-1.89,3.1-2.8,4.85a68.82,68.82,0,0,0-4.86,11.74c-.3,1.77-.56,3.64-.76,5.62a78.72,78.72,0,0,0-.38,9.45v9.32L147.62,127l-4,8.21-6.74,8.13-9.6,7.15-10.08,3.2-8.17.59H86.85v1.94l14.62.19h11l9.14-1.07,9.25-4.06,9.93-8.11,6.15-8.5,4.6-10,1.44-9.85.22-7.13.12-8.81,1.48-7,3.76-8.68,3.45-6.13,7.78-7.66a77.31,77.31,0,0,1,16.73-9.23Z"/><polygon class="cls-16" points="277.58 133.61 210.56 133.61 277.58 136.04 277.58 133.61"/><polygon class="cls-16" points="176.09 226.42 245.79 228.72 246.81 226.42 176.09 226.42"/><polygon class="cls-16" points="202.9 43.87 242.66 45.39 241.96 43.87 202.9 43.87"/><path class="cls-17" d="M25.19,96.72a170,170,0,0,1,134.39-84,144,144,0,0,0-85.11,23.8A141.51,141.51,0,0,0,52.26,55.61,142.94,142.94,0,0,0,25.19,96.72Z"/><path class="cls-17" d="M32.77,227.57c8.08,11,37.43,48.18,90.89,61.25a159.84,159.84,0,0,0,87.79-3.76,140.33,140.33,0,0,1-104.73,3.74,145,145,0,0,1-73.95-61.23Z"/></svg>